<svg xmlns="http://www.w3.org/2000/svg" viewBox="0 0 800 800" fill="none">
  <!-- Background -->
  <rect width="800" height="800" fill="#FAF5FF"/>
  
  <!-- Person reading -->
  <g transform="translate(300, 200)">
    <!-- Head -->
    <circle cx="100" cy="80" r="45" fill="none" stroke="#1C1917" stroke-width="3"/>
    
    <!-- Hair -->
    <path d="M 60 65 Q 60 30 100 30 Q 140 30 140 65" fill="#1C1917"/>
    
    <!-- Closed eyes (reading) -->
    <path d="M 85 75 Q 90 78 95 75" stroke="#1C1917" stroke-width="2" stroke-linecap="round"/>
    <path d="M 105 75 Q 110 78 115 75" stroke="#1C1917" stroke-width="2" stroke-linecap="round"/>
    
    <!-- Slight smile -->
    <path d="M 90 95 Q 100 100 110 95" stroke="#1C1917" stroke-width="2" stroke-linecap="round" fill="none"/>
    
    <!-- Body -->
    <path d="M 100 125 L 100 220" stroke="#1C1917" stroke-width="3" stroke-linecap="round"/>
    
    <!-- Arms holding book -->
    <path d="M 100 160 Q 60 180 60 220" stroke="#1C1917" stroke-width="3" stroke-linecap="round"/>
    <path d="M 100 160 Q 140 180 140 220" stroke="#1C1917" stroke-width="3" stroke-linecap="round"/>
    
    <!-- Open book -->
    <g transform="translate(40, 200)">
      <path d="M 0 20 Q 0 0 20 0 L 60 0 L 60 80 L 20 80 Q 0 80 0 60 Z" 
            fill="white" stroke="#1C1917" stroke-width="3"/>
      <path d="M 60 0 L 100 0 Q 120 0 120 20 L 120 60 Q 120 80 100 80 L 60 80" 
            fill="white" stroke="#1C1917" stroke-width="3"/>
      
      <!-- Book lines (text) -->
      <line x1="10" y1="20" x2="50" y2="20" stroke="#D946EF" stroke-width="2"/>
      <line x1="10" y1="30" x2="50" y2="30" stroke="#D946EF" stroke-width="2"/>
      <line x1="10" y1="40" x2="45" y2="40" stroke="#D946EF" stroke-width="2"/>
      
      <line x1="70" y1="20" x2="110" y2="20" stroke="#D946EF" stroke-width="2"/>
      <line x1="70" y1="30" x2="110" y2="30" stroke="#D946EF" stroke-width="2"/>
      <line x1="70" y1="40" x2="105" y2="40" stroke="#D946EF" stroke-width="2"/>
    </g>
  </g>
</svg>

